<?xml version="1.0" standalone="no"?>
<!DOCTYPE svg PUBLIC "-//W3C//DTD SVG 20010904//EN"
 "http://www.w3.org/TR/2001/REC-SVG-20010904/DTD/svg10.dtd">
<svg version="1.0" xmlns="http://www.w3.org/2000/svg"
 width="300.000000pt" height="128.000000pt" viewBox="0 0 300.000000 128.000000"
 preserveAspectRatio="xMidYMid meet">
<metadata>
Created by potrace 1.10, written by Peter Selinger 2001-2011
</metadata>
<g transform="translate(0.000000,128.000000) scale(0.100000,-0.100000)"
fill="#000000" stroke="none">
<path d="M639 1198 c-16 -22 -25 -21 -63 4 -13 9 -20 10 -23 2 -2 -6 -10 -19
-17 -29 -12 -16 -14 -16 -45 -1 l-32 17 -10 -31 c-11 -30 -41 -41 -54 -20 -12
20 -24 9 -31 -26 -6 -35 -7 -35 -45 -29 l-39 7 0 -36 c0 -34 -2 -36 -34 -36
-34 0 -35 -1 -29 -34 5 -31 3 -33 -27 -40 -31 -6 -32 -8 -26 -41 7 -33 5 -36
-23 -46 -35 -12 -36 -16 -16 -43 21 -28 19 -33 -16 -52 l-31 -16 21 -22 c21
-22 28 -46 14 -46 -5 0 -17 -7 -28 -16 -19 -14 -19 -15 10 -38 l30 -24 -24
-25 c-23 -25 -22 -47 3 -47 25 0 35 -24 20 -44 -21 -29 -17 -45 12 -52 23 -6
25 -10 19 -45 -7 -39 -6 -39 25 -39 32 0 33 -1 27 -40 -5 -40 -5 -40 29 -40
32 0 34 -2 34 -36 0 -36 0 -36 34 -30 36 7 46 -3 46 -45 0 -20 7 -20 58 -1 8
2 18 -8 25 -27 13 -35 18 -37 52 -15 23 15 24 14 40 -15 18 -36 26 -38 50 -11
l18 20 27 -25 26 -25 24 25 24 25 24 -22 c23 -22 24 -22 37 -4 8 10 16 24 18
30 3 10 14 7 68 -22 4 -1 12 11 18 29 11 32 17 33 63 14 13 -5 18 1 24 30 6
35 8 37 40 30 33 -6 34 -5 34 30 0 34 1 35 39 35 39 0 40 0 31 30 -9 33 -8 34
34 44 28 7 30 14 11 57 -5 13 2 20 29 29 l36 12 -17 30 c-17 28 -17 30 1 43
10 8 24 16 30 18 8 3 7 10 -2 23 -24 37 -24 44 -1 63 l24 19 -24 26 -23 25 21
27 22 28 -28 14 c-38 20 -38 18 -19 46 23 35 20 43 -15 51 -32 7 -32 6 -12 67
4 13 -2 17 -29 20 -34 3 -38 11 -24 55 6 19 3 22 -31 25 -35 3 -38 5 -38 33 0
28 -3 30 -35 30 -31 0 -35 4 -40 30 -6 31 -7 32 -53 21 -25 -6 -28 -3 -33 24
-7 34 -19 37 -51 15 -20 -14 -23 -14 -32 2 -28 49 -28 49 -56 23 l-27 -25 -20
28 c-23 32 -28 33 -49 5z m47 -39 c4 -7 20 -8 41 -4 26 5 40 2 54 -11 11 -10
27 -14 39 -11 15 4 28 -2 42 -18 12 -14 27 -21 38 -18 12 3 27 -5 41 -21 12
-14 27 -26 33 -26 10 0 44 -36 116 -121 16 -20 30 -48 30 -62 0 -14 7 -27 15
-31 9 -3 15 -18 15 -36 0 -17 5 -41 12 -53 13 -25 19 -129 8 -148 -5 -7 -4
-22 0 -35 6 -15 4 -28 -5 -40 -8 -11 -15 -31 -15 -45 0 -15 -9 -38 -20 -52
-11 -14 -20 -32 -20 -41 0 -9 -11 -26 -25 -38 -14 -12 -25 -25 -25 -30 0 -11
-89 -98 -99 -98 -5 0 -21 -11 -37 -25 -16 -14 -36 -25 -44 -25 -9 0 -24 -6
-35 -14 -21 -14 -67 -25 -126 -31 -20 -1 -46 -6 -57 -9 -12 -4 -34 0 -52 9
-17 9 -30 11 -30 5 0 -15 -27 -12 -55 6 -14 9 -31 14 -39 11 -8 -3 -26 3 -39
14 -14 10 -32 19 -41 19 -8 0 -27 11 -42 25 -14 13 -35 27 -45 30 -11 4 -19
10 -19 15 0 5 -15 25 -33 44 -49 53 -77 93 -77 110 0 9 -10 30 -21 45 -12 16
-18 34 -15 40 4 6 1 21 -5 33 -25 47 -24 212 1 243 8 10 13 28 12 41 -2 13 6
36 17 50 12 15 21 34 21 43 0 20 136 168 146 159 3 -4 17 6 31 23 14 16 33 29
42 29 9 0 26 7 37 15 10 8 33 15 51 15 17 0 35 5 39 11 4 7 21 9 45 5 21 -3
40 -2 44 4 8 13 42 13 51 -1z"/>
<path d="M583 1133 c-69 -9 -28 -18 68 -16 112 2 140 8 51 12 -31 1 -64 3 -72
5 -8 1 -30 1 -47 -1z"/>
<path d="M436 1080 c-86 -43 -150 -98 -197 -172 -33 -51 -72 -154 -66 -172 2
-6 10 9 16 33 31 110 124 234 208 277 21 10 40 22 43 25 3 3 23 12 45 20 45
15 67 29 45 29 -8 0 -51 -18 -94 -40z"/>
<path d="M773 1112 c4 -5 27 -15 52 -22 25 -7 45 -15 45 -19 0 -3 13 -12 29
-19 46 -20 119 -90 156 -148 32 -49 49 -94 74 -184 6 -21 10 -27 10 -14 2 34
-29 126 -62 184 -41 74 -125 153 -200 189 -72 35 -112 47 -104 33z"/>
<path d="M568 1082 c-9 -4 30 -7 89 -7 58 0 95 3 82 6 -32 9 -149 9 -171 1z"/>
<path d="M470 1052 c-164 -77 -270 -245 -270 -426 0 -58 13 -36 15 27 3 74 12
107 45 174 50 103 136 184 239 224 25 10 37 18 26 18 -11 0 -36 -8 -55 -17z"/>
<path d="M790 1058 c90 -40 121 -59 172 -111 32 -32 69 -81 83 -110 14 -29 25
-45 25 -36 0 28 -46 100 -100 155 -52 53 -153 115 -186 113 -15 0 -14 -3 6
-11z"/>
<path d="M573 850 c-57 -35 -77 -98 -49 -163 17 -41 49 -69 109 -97 38 -18 47
-27 45 -44 -5 -35 -37 -31 -72 10 -27 31 -36 36 -59 30 -38 -9 -49 -35 -34
-81 33 -109 222 -125 270 -22 39 82 9 152 -88 203 -40 21 -60 38 -60 50 0 31
33 28 61 -5 57 -68 121 -12 83 72 -27 60 -142 86 -206 47z m132 -14 c22 -10
41 -28 54 -55 28 -55 27 -63 -11 -59 -26 2 -33 8 -40 35 -13 50 -84 58 -109
12 -21 -40 -3 -68 64 -99 93 -43 121 -83 106 -150 -12 -54 -49 -80 -113 -80
-62 0 -100 24 -123 77 -16 40 -11 53 22 53 19 0 26 -7 33 -32 16 -64 105 -74
126 -15 15 43 -5 72 -65 93 -78 28 -109 62 -109 117 0 90 78 139 165 103z"/>
<path d="M1080 749 c13 -45 13 -164 -1 -214 -42 -151 -156 -271 -299 -316 -21
-6 -22 -7 -4 -8 11 -1 40 9 64 20 100 48 178 129 228 236 24 53 27 69 27 175
0 80 -4 121 -12 129 -10 10 -11 6 -3 -22z"/>
<path d="M161 710 c-6 -35 -1 -134 6 -141 4 -4 7 18 5 49 -3 72 -8 111 -11 92z"/>
<path d="M1137 613 c-29 -146 -37 -168 -88 -243 -45 -66 -94 -113 -143 -136
-20 -10 -36 -21 -36 -25 0 -3 -20 -12 -45 -19 -25 -7 -48 -17 -51 -21 -7 -12
-5 -12 63 15 70 27 155 89 197 142 49 62 94 162 106 236 11 66 9 110 -3 51z"/>
<path d="M215 541 c18 -139 192 -314 330 -334 34 -5 31 -3 -18 12 -143 47
-246 153 -299 310 l-19 56 6 -44z"/>
<path d="M175 520 c17 -96 115 -234 209 -294 52 -33 153 -72 162 -63 3 3 -20
13 -50 22 -31 10 -56 21 -56 25 0 4 -10 10 -23 14 -13 3 -53 33 -90 66 -48 44
-75 80 -101 133 -20 40 -36 79 -36 87 0 8 -5 22 -11 30 -8 11 -9 6 -4 -20z"/>
<path d="M590 198 c0 -5 29 -8 64 -8 36 0 67 3 69 8 3 4 -26 7 -64 7 -38 0
-69 -3 -69 -7z"/>
<path d="M567 160 c8 -8 34 -12 75 -11 81 2 89 11 10 11 -33 0 -69 3 -79 6
-14 6 -16 4 -6 -6z"/>
<path d="M1392 857 c-35 -20 -55 -56 -56 -103 -1 -59 27 -93 102 -124 33 -14
70 -34 81 -44 26 -24 27 -66 2 -97 -39 -48 -141 -21 -141 38 0 19 -5 23 -31
23 -29 0 -31 -2 -24 -27 17 -73 75 -108 159 -100 69 6 106 47 106 116 0 60
-26 92 -108 127 -75 34 -92 50 -92 91 0 88 126 100 145 13 5 -23 12 -30 31
-30 48 0 17 87 -42 115 -39 18 -101 19 -132 2z"/>
<path d="M1660 694 c0 -195 9 -232 61 -259 70 -37 176 -6 198 57 6 18 11 105
11 205 l0 174 -26 -3 -25 -3 -2 -182 c-2 -210 -5 -218 -82 -218 -77 0 -80 7
-83 220 l-3 185 -25 0 -24 0 0 -176z"/>
<path d="M2171 693 c3 -192 -3 -218 -46 -229 -34 -8 -73 18 -77 53 -2 19 -9
27 -26 28 -31 2 -36 -9 -22 -50 16 -48 53 -75 104 -75 54 0 85 17 107 60 17
30 19 58 19 212 l0 178 -30 0 -31 0 2 -177z"/>
<path d="M2425 858 c-3 -7 -30 -90 -60 -185 -30 -95 -61 -189 -70 -209 -19
-46 -20 -44 13 -44 27 0 30 5 45 60 l17 60 80 0 79 0 10 -37 c5 -21 11 -47 13
-58 4 -23 58 -36 58 -14 0 7 -14 54 -30 104 -17 49 -47 144 -69 210 -32 100
-42 121 -60 123 -11 2 -23 -3 -26 -10z m54 -155 c12 -48 27 -93 33 -100 13
-16 17 -15 -59 -17 -36 -1 -63 2 -63 8 0 5 9 39 20 75 11 36 22 78 25 94 9 47
22 30 44 -60z"/>
<path d="M2610 863 c0 -5 4 -13 9 -18 5 -6 35 -66 65 -134 54 -119 56 -128 56
-208 l0 -84 27 3 c26 3 26 3 24 83 -2 76 0 85 44 180 25 55 55 116 65 136 26
47 25 49 -10 49 -33 0 -37 -6 -87 -145 -14 -38 -29 -73 -33 -78 -4 -4 -26 43
-51 105 -43 110 -45 113 -76 116 -18 2 -33 -1 -33 -5z"/>
</g>
</svg>
